<svg width="24" height="24" viewBox="0 0 24 24" fill="none" xmlns="http://www.w3.org/2000/svg">
<g clip-path="url(#clip0_27_7296)">
<path d="M0 6.4C0 4.15979 0 3.03968 0.435974 2.18404C0.819467 1.43139 1.43139 0.819467 2.18404 0.435974C3.03968 0 4.15979 0 6.4 0H17.6C19.8402 0 20.9603 0 21.816 0.435974C22.5686 0.819467 23.1805 1.43139 23.564 2.18404C24 3.03968 24 4.15979 24 6.4V17.6C24 19.8402 24 20.9603 23.564 21.816C23.1805 22.5686 22.5686 23.1805 21.816 23.564C20.9603 24 19.8402 24 17.6 24H6.4C4.15979 24 3.03968 24 2.18404 23.564C1.43139 23.1805 0.819467 22.5686 0.435974 21.816C0 20.9603 0 19.8402 0 17.6V6.4Z" fill="url(#paint0_radial_27_7296)"/>
<path fill-rule="evenodd" clip-rule="evenodd" d="M20.3158 10.8307L18.0583 9.51837C17.4989 9.19275 17.1593 8.60071 17.1593 7.95933V5.35436C17.1593 4.30843 16.0205 3.65718 15.1115 4.19002L12.904 5.47277C12.3446 5.79839 11.6454 5.79839 11.076 5.47277L8.87847 4.19002C7.96948 3.66705 6.83074 4.31829 6.83074 5.35436V7.95933C6.83074 8.60071 6.49112 9.19275 5.93174 9.51837L3.67425 10.8307C2.77525 11.3537 2.77525 12.6463 3.67425 13.1693L5.93174 14.4816C6.49112 14.8073 6.83074 15.3993 6.83074 16.0407V18.6456C6.83074 19.6916 7.96948 20.3428 8.87847 19.81L11.086 18.5272C11.6454 18.2016 12.3446 18.2016 12.914 18.5272L15.1215 19.81C16.0305 20.3329 17.1693 19.6817 17.1693 18.6456V16.0407C17.1693 15.3993 17.5089 14.8073 18.0683 14.4816L20.3257 13.1693C21.2247 12.6463 21.2247 11.3537 20.3257 10.8307H20.3158ZM17.1493 12.5772L15.5511 13.5048C15.2614 13.6725 15.0816 13.9883 15.0816 14.3238V16.1788C15.0816 16.6919 14.5122 17.0175 14.0627 16.7511L12.4845 15.8335C12.1848 15.6657 11.8252 15.6657 11.5255 15.8335L9.94728 16.7412C9.48779 17.0077 8.91842 16.682 8.91842 16.1591V14.304C8.91842 13.9685 8.73862 13.6626 8.44895 13.4949L6.85072 12.5674C6.40122 12.3108 6.40122 11.6596 6.85072 11.403L8.44895 10.4755C8.73862 10.3078 8.91842 9.992 8.91842 9.65651V7.81132C8.91842 7.28836 9.48779 6.9726 9.94728 7.22915L11.5255 8.13695C11.8252 8.30469 12.1848 8.30469 12.4845 8.13695L14.0627 7.22915C14.5222 6.96274 15.0916 7.28836 15.0916 7.81132V9.66638C15.0916 10.0019 15.2714 10.3078 15.561 10.4755L17.1593 11.403C17.6088 11.6596 17.6088 12.3108 17.1593 12.5674L17.1493 12.5772Z" fill="white"/>
<path d="M14.9863 3.97461C16.0605 3.34573 17.4092 4.11407 17.4092 5.35449V7.95898C17.4092 8.5109 17.7013 9.02072 18.1836 9.30176L20.3848 10.5811H20.3936L20.4512 10.6143C21.5159 11.2336 21.5159 12.7664 20.4512 13.3857L18.1943 14.6982C17.7117 14.9792 17.4189 15.4889 17.4189 16.041V18.6455C17.4189 19.8781 16.069 20.643 14.9971 20.0264H14.9961L12.79 18.7441L12.6006 18.6514C12.148 18.4664 11.6328 18.4982 11.2119 18.7432L9.00391 20.0264L9.00293 20.0254C7.92888 20.6537 6.58105 19.8857 6.58105 18.6455V16.041C6.58105 15.4889 6.28834 14.9782 5.80566 14.6973L3.54883 13.3857C2.4841 12.7664 2.4841 11.2336 3.54883 10.6143L5.80566 9.30176C6.28833 9.02079 6.58105 8.51112 6.58105 7.95898V5.35449C6.58105 4.12186 7.93101 3.35695 9.00293 3.97363H9.00488L11.2002 5.25586L11.3896 5.34863C11.8422 5.53354 12.3575 5.50181 12.7783 5.25684L14.9863 3.97363V3.97461ZM14.8418 7.81152C14.8418 7.48541 14.4848 7.27382 14.1885 7.44531L14.1875 7.44629L12.6094 8.35352L12.6064 8.35547C12.231 8.56552 11.7788 8.56558 11.4033 8.35547L11.4004 8.35352L9.82227 7.44629V7.44531C9.51923 7.27908 9.16797 7.49295 9.16797 7.81152V9.65625C9.16797 10.0796 8.94206 10.4783 8.57422 10.6914L6.97656 11.6191L6.97461 11.6201C6.71089 11.7706 6.6942 12.1395 6.9248 12.3174L6.97461 12.3506L6.97656 12.3516L8.57422 13.2783C8.93955 13.4899 9.16786 13.8775 9.16797 14.3037V16.1592C9.16805 16.4854 9.52594 16.6972 9.82227 16.5254V16.5244L11.4004 15.6172L11.4033 15.6152C11.7788 15.405 12.2309 15.4051 12.6064 15.6152L12.6104 15.6172L14.1885 16.5352L14.1904 16.5361C14.4752 16.7047 14.832 16.4958 14.832 16.1787V14.3242C14.832 13.9008 15.0578 13.5012 15.4258 13.2881L16.9951 12.377L17.0068 12.3662L17.0352 12.3506C17.3166 12.19 17.3166 11.7807 17.0352 11.6201L17.0342 11.6191L15.4355 10.6914C15.0703 10.4798 14.8418 10.0922 14.8418 9.66602V7.81152Z" stroke="black" stroke-opacity="0.12" stroke-width="0.5"/>
</g>
<defs>
<radialGradient id="paint0_radial_27_7296" cx="0" cy="0" r="1" gradientUnits="userSpaceOnUse" gradientTransform="translate(24.5 24) rotate(-135) scale(33.9411)">
<stop stop-color="#FDAA87"/>
<stop offset="0.802885" stop-color="#FF558F"/>
</radialGradient>
<clipPath id="clip0_27_7296">
<rect width="24" height="24" fill="white"/>
</clipPath>
</defs>
</svg>
